{
	"patcher" : 	{
		"fileversion" : 1,
		"appversion" : 		{
			"major" : 8,
			"minor" : 5,
			"revision" : 6,
			"architecture" : "x64",
			"modernui" : 1
		}
,
		"classnamespace" : "box",
		"rect" : [ 1411.0, 84.0, 1307.0, 985.0 ],
		"bglocked" : 0,
		"openinpresentation" : 0,
		"default_fontsize" : 12.0,
		"default_fontface" : 0,
		"default_fontname" : "Arial",
		"gridonopen" : 1,
		"gridsize" : [ 15.0, 15.0 ],
		"gridsnaponopen" : 1,
		"objectsnaponopen" : 1,
		"statusbarvisible" : 2,
		"toolbarvisible" : 1,
		"lefttoolbarpinned" : 0,
		"toptoolbarpinned" : 0,
		"righttoolbarpinned" : 0,
		"bottomtoolbarpinned" : 0,
		"toolbars_unpinned_last_save" : 0,
		"tallnewobj" : 0,
		"boxanimatetime" : 200,
		"enablehscroll" : 1,
		"enablevscroll" : 1,
		"devicewidth" : 0.0,
		"description" : "",
		"digest" : "",
		"tags" : "",
		"style" : "",
		"subpatcher_template" : "",
		"assistshowspatchername" : 0,
		"boxes" : [ 			{
				"box" : 				{
					"annotation" : "op <p",
					"comment" : "op <p",
					"hint" : "op <p",
					"id" : "obj-20",
					"index" : 8,
					"maxclass" : "outlet",
					"numinlets" : 1,
					"numoutlets" : 0,
					"patching_rect" : [ 1394.800010800361633, 523.0, 30.0, 30.0 ]
				}

			}
, 			{
				"box" : 				{
					"annotation" : "op avg",
					"comment" : "op avg",
					"hint" : "op avg",
					"id" : "obj-19",
					"index" : 7,
					"maxclass" : "outlet",
					"numinlets" : 1,
					"numoutlets" : 0,
					"patching_rect" : [ 1338.542866400310004, 523.0, 30.0, 30.0 ]
				}

			}
, 			{
				"box" : 				{
					"annotation" : "op sub",
					"comment" : "op sub",
					"hint" : "op sub",
					"id" : "obj-18",
					"index" : 5,
					"maxclass" : "outlet",
					"numinlets" : 1,
					"numoutlets" : 0,
					"patching_rect" : [ 1226.0, 494.0, 30.0, 30.0 ]
				}

			}
, 			{
				"box" : 				{
					"annotation" : "op +",
					"comment" : "op +",
					"hint" : "op +",
					"id" : "obj-17",
					"index" : 4,
					"maxclass" : "outlet",
					"numinlets" : 1,
					"numoutlets" : 0,
					"patching_rect" : [ 1169.771433200154888, 548.0, 30.0, 30.0 ]
				}

			}
, 			{
				"box" : 				{
					"annotation" : "op !pass",
					"comment" : "op !pass",
					"hint" : "op !pass",
					"id" : "obj-16",
					"index" : 2,
					"maxclass" : "outlet",
					"numinlets" : 1,
					"numoutlets" : 0,
					"patching_rect" : [ 1057.257144400051629, 548.0, 30.0, 30.0 ]
				}

			}
, 			{
				"box" : 				{
					"annotation" : "op pass",
					"comment" : "op pass",
					"hint" : "op pass",
					"id" : "obj-14",
					"index" : 6,
					"maxclass" : "outlet",
					"numinlets" : 1,
					"numoutlets" : 0,
					"patching_rect" : [ 1282.285722000258374, 523.0, 30.0, 30.0 ]
				}

			}
, 			{
				"box" : 				{
					"annotation" : "op pass",
					"comment" : "op pass",
					"hint" : "op pass",
					"id" : "obj-13",
					"index" : 3,
					"maxclass" : "outlet",
					"numinlets" : 1,
					"numoutlets" : 0,
					"patching_rect" : [ 1113.514288800103259, 515.0, 30.0, 30.0 ]
				}

			}
, 			{
				"box" : 				{
					"annotation" : "op pass",
					"comment" : "op pass",
					"hint" : "op pass",
					"id" : "obj-12",
					"index" : 1,
					"maxclass" : "outlet",
					"numinlets" : 1,
					"numoutlets" : 0,
					"patching_rect" : [ 1001.0, 489.0, 30.0, 30.0 ]
				}

			}
, 			{
				"box" : 				{
					"annotation" : "metro bang for gate",
					"comment" : "metro bang for gate",
					"hint" : "metro bang for gate",
					"id" : "obj-11",
					"index" : 2,
					"maxclass" : "inlet",
					"numinlets" : 0,
					"numoutlets" : 1,
					"outlettype" : [ "bang" ],
					"patching_rect" : [ 1394.800010800361633, 320.199997305870056, 30.0, 30.0 ]
				}

			}
, 			{
				"box" : 				{
					"annotation" : "metro bang to start urn",
					"comment" : "metro bang to start urn",
					"hint" : "metro bang to start urn",
					"id" : "obj-9",
					"index" : 1,
					"maxclass" : "inlet",
					"numinlets" : 0,
					"numoutlets" : 1,
					"outlettype" : [ "bang" ],
					"patching_rect" : [ 1001.0, 229.0, 30.0, 30.0 ]
				}

			}
, 			{
				"box" : 				{
					"id" : "obj-8",
					"maxclass" : "message",
					"numinlets" : 2,
					"numoutlets" : 1,
					"outlettype" : [ "" ],
					"patching_rect" : [ 1062.757144400051402, 243.0, 35.0, 22.0 ],
					"text" : "clear"
				}

			}
, 			{
				"box" : 				{
					"id" : "obj-2",
					"maxclass" : "message",
					"numinlets" : 2,
					"numoutlets" : 1,
					"outlettype" : [ "" ],
					"patching_rect" : [ 1113.514288800103259, 444.600010216236115, 51.0, 22.0 ],
					"text" : "op pass"
				}

			}
, 			{
				"box" : 				{
					"id" : "obj-1",
					"maxclass" : "message",
					"numinlets" : 2,
					"numoutlets" : 1,
					"outlettype" : [ "" ],
					"patching_rect" : [ 1282.285722000258374, 481.200010001659393, 51.0, 22.0 ],
					"text" : "op pass"
				}

			}
, 			{
				"box" : 				{
					"id" : "obj-266",
					"maxclass" : "number",
					"numinlets" : 1,
					"numoutlets" : 2,
					"outlettype" : [ "", "bang" ],
					"parameter_enable" : 0,
					"patching_rect" : [ 1001.0, 328.199997305870056, 50.0, 22.0 ]
				}

			}
, 			{
				"box" : 				{
					"id" : "obj-263",
					"maxclass" : "button",
					"numinlets" : 1,
					"numoutlets" : 1,
					"outlettype" : [ "bang" ],
					"parameter_enable" : 0,
					"patching_rect" : [ 1394.800010800361633, 406.800009310245514, 24.0, 24.0 ]
				}

			}
, 			{
				"box" : 				{
					"id" : "obj-262",
					"maxclass" : "button",
					"numinlets" : 1,
					"numoutlets" : 1,
					"outlettype" : [ "bang" ],
					"parameter_enable" : 0,
					"patching_rect" : [ 1338.542866400310004, 406.800009310245514, 24.0, 24.0 ]
				}

			}
, 			{
				"box" : 				{
					"id" : "obj-261",
					"maxclass" : "button",
					"numinlets" : 1,
					"numoutlets" : 1,
					"outlettype" : [ "bang" ],
					"parameter_enable" : 0,
					"patching_rect" : [ 1282.285722000258374, 406.800009310245514, 24.0, 24.0 ]
				}

			}
, 			{
				"box" : 				{
					"id" : "obj-260",
					"maxclass" : "button",
					"numinlets" : 1,
					"numoutlets" : 1,
					"outlettype" : [ "bang" ],
					"parameter_enable" : 0,
					"patching_rect" : [ 1226.028577600206745, 406.800009310245514, 24.0, 24.0 ]
				}

			}
, 			{
				"box" : 				{
					"id" : "obj-259",
					"maxclass" : "button",
					"numinlets" : 1,
					"numoutlets" : 1,
					"outlettype" : [ "bang" ],
					"parameter_enable" : 0,
					"patching_rect" : [ 1169.771433200154888, 406.800009310245514, 24.0, 24.0 ]
				}

			}
, 			{
				"box" : 				{
					"id" : "obj-258",
					"maxclass" : "button",
					"numinlets" : 1,
					"numoutlets" : 1,
					"outlettype" : [ "bang" ],
					"parameter_enable" : 0,
					"patching_rect" : [ 1113.514288800103259, 406.800009310245514, 24.0, 24.0 ]
				}

			}
, 			{
				"box" : 				{
					"id" : "obj-257",
					"maxclass" : "button",
					"numinlets" : 1,
					"numoutlets" : 1,
					"outlettype" : [ "bang" ],
					"parameter_enable" : 0,
					"patching_rect" : [ 1057.257144400051629, 406.800009310245514, 24.0, 24.0 ]
				}

			}
, 			{
				"box" : 				{
					"id" : "obj-256",
					"maxclass" : "button",
					"numinlets" : 1,
					"numoutlets" : 1,
					"outlettype" : [ "bang" ],
					"parameter_enable" : 0,
					"patching_rect" : [ 1001.0, 406.800009310245514, 24.0, 24.0 ]
				}

			}
, 			{
				"box" : 				{
					"id" : "obj-254",
					"maxclass" : "newobj",
					"numinlets" : 2,
					"numoutlets" : 2,
					"outlettype" : [ "int", "bang" ],
					"patching_rect" : [ 1001.0, 285.0, 36.0, 22.0 ],
					"text" : "urn 9"
				}

			}
, 			{
				"box" : 				{
					"id" : "obj-251",
					"maxclass" : "message",
					"numinlets" : 2,
					"numoutlets" : 1,
					"outlettype" : [ "" ],
					"patching_rect" : [ 1394.800010800361633, 453.200010001659393, 39.0, 22.0 ],
					"text" : "op <p"
				}

			}
, 			{
				"box" : 				{
					"id" : "obj-250",
					"maxclass" : "message",
					"numinlets" : 2,
					"numoutlets" : 1,
					"outlettype" : [ "" ],
					"patching_rect" : [ 1057.257144400051629, 481.200010001659393, 54.0, 22.0 ],
					"text" : "op !pass"
				}

			}
, 			{
				"box" : 				{
					"id" : "obj-249",
					"maxclass" : "message",
					"numinlets" : 2,
					"numoutlets" : 1,
					"outlettype" : [ "" ],
					"patching_rect" : [ 1338.542866400310004, 453.200010001659393, 45.0, 22.0 ],
					"text" : "op avg"
				}

			}
, 			{
				"box" : 				{
					"id" : "obj-247",
					"maxclass" : "message",
					"numinlets" : 2,
					"numoutlets" : 1,
					"outlettype" : [ "" ],
					"patching_rect" : [ 1472.800007581710815, 307.200008392333984, 42.0, 22.0 ],
					"text" : "op +m"
				}

			}
, 			{
				"box" : 				{
					"id" : "obj-245",
					"maxclass" : "message",
					"numinlets" : 2,
					"numoutlets" : 1,
					"outlettype" : [ "" ],
					"patching_rect" : [ 1226.028577600206745, 444.600010216236115, 45.0, 22.0 ],
					"text" : "op sub"
				}

			}
, 			{
				"box" : 				{
					"id" : "obj-243",
					"maxclass" : "message",
					"numinlets" : 2,
					"numoutlets" : 1,
					"outlettype" : [ "" ],
					"patching_rect" : [ 1169.771433200154888, 481.200010001659393, 32.0, 22.0 ],
					"text" : "op +"
				}

			}
, 			{
				"box" : 				{
					"id" : "obj-241",
					"maxclass" : "message",
					"numinlets" : 2,
					"numoutlets" : 1,
					"outlettype" : [ "" ],
					"patching_rect" : [ 1478.800007581710815, 275.200006365776062, 30.0, 22.0 ],
					"text" : "op *"
				}

			}
, 			{
				"box" : 				{
					"id" : "obj-234",
					"maxclass" : "newobj",
					"numinlets" : 2,
					"numoutlets" : 8,
					"outlettype" : [ "", "", "", "", "", "", "", "" ],
					"patching_rect" : [ 1001.0, 372.19999897480011, 412.800010800361633, 22.0 ],
					"text" : "gate 8 1"
				}

			}
, 			{
				"box" : 				{
					"id" : "obj-10",
					"maxclass" : "message",
					"numinlets" : 2,
					"numoutlets" : 1,
					"outlettype" : [ "" ],
					"patching_rect" : [ 1001.0, 444.600010216236115, 51.0, 22.0 ],
					"text" : "op pass"
				}

			}
 ],
		"lines" : [ 			{
				"patchline" : 				{
					"destination" : [ "obj-14", 0 ],
					"source" : [ "obj-1", 0 ]
				}

			}
, 			{
				"patchline" : 				{
					"destination" : [ "obj-12", 0 ],
					"source" : [ "obj-10", 0 ]
				}

			}
, 			{
				"patchline" : 				{
					"destination" : [ "obj-234", 1 ],
					"source" : [ "obj-11", 0 ]
				}

			}
, 			{
				"patchline" : 				{
					"destination" : [ "obj-13", 0 ],
					"source" : [ "obj-2", 0 ]
				}

			}
, 			{
				"patchline" : 				{
					"destination" : [ "obj-256", 0 ],
					"source" : [ "obj-234", 0 ]
				}

			}
, 			{
				"patchline" : 				{
					"destination" : [ "obj-257", 0 ],
					"source" : [ "obj-234", 1 ]
				}

			}
, 			{
				"patchline" : 				{
					"destination" : [ "obj-258", 0 ],
					"source" : [ "obj-234", 2 ]
				}

			}
, 			{
				"patchline" : 				{
					"destination" : [ "obj-259", 0 ],
					"source" : [ "obj-234", 3 ]
				}

			}
, 			{
				"patchline" : 				{
					"destination" : [ "obj-260", 0 ],
					"source" : [ "obj-234", 4 ]
				}

			}
, 			{
				"patchline" : 				{
					"destination" : [ "obj-261", 0 ],
					"source" : [ "obj-234", 5 ]
				}

			}
, 			{
				"patchline" : 				{
					"destination" : [ "obj-262", 0 ],
					"source" : [ "obj-234", 6 ]
				}

			}
, 			{
				"patchline" : 				{
					"destination" : [ "obj-263", 0 ],
					"source" : [ "obj-234", 7 ]
				}

			}
, 			{
				"patchline" : 				{
					"destination" : [ "obj-17", 0 ],
					"source" : [ "obj-243", 0 ]
				}

			}
, 			{
				"patchline" : 				{
					"destination" : [ "obj-18", 0 ],
					"source" : [ "obj-245", 0 ]
				}

			}
, 			{
				"patchline" : 				{
					"destination" : [ "obj-19", 0 ],
					"source" : [ "obj-249", 0 ]
				}

			}
, 			{
				"patchline" : 				{
					"destination" : [ "obj-16", 0 ],
					"source" : [ "obj-250", 0 ]
				}

			}
, 			{
				"patchline" : 				{
					"destination" : [ "obj-20", 0 ],
					"source" : [ "obj-251", 0 ]
				}

			}
, 			{
				"patchline" : 				{
					"destination" : [ "obj-266", 0 ],
					"source" : [ "obj-254", 0 ]
				}

			}
, 			{
				"patchline" : 				{
					"destination" : [ "obj-8", 0 ],
					"midpoints" : [ 1044.0, 307.0, 1044.0, 241.0, 1072.257144400051402, 241.0 ],
					"source" : [ "obj-254", 1 ]
				}

			}
, 			{
				"patchline" : 				{
					"destination" : [ "obj-10", 0 ],
					"source" : [ "obj-256", 0 ]
				}

			}
, 			{
				"patchline" : 				{
					"destination" : [ "obj-250", 0 ],
					"source" : [ "obj-257", 0 ]
				}

			}
, 			{
				"patchline" : 				{
					"destination" : [ "obj-2", 0 ],
					"source" : [ "obj-258", 0 ]
				}

			}
, 			{
				"patchline" : 				{
					"destination" : [ "obj-243", 0 ],
					"source" : [ "obj-259", 0 ]
				}

			}
, 			{
				"patchline" : 				{
					"destination" : [ "obj-245", 0 ],
					"source" : [ "obj-260", 0 ]
				}

			}
, 			{
				"patchline" : 				{
					"destination" : [ "obj-1", 0 ],
					"source" : [ "obj-261", 0 ]
				}

			}
, 			{
				"patchline" : 				{
					"destination" : [ "obj-249", 0 ],
					"source" : [ "obj-262", 0 ]
				}

			}
, 			{
				"patchline" : 				{
					"destination" : [ "obj-251", 0 ],
					"source" : [ "obj-263", 0 ]
				}

			}
, 			{
				"patchline" : 				{
					"destination" : [ "obj-234", 0 ],
					"source" : [ "obj-266", 0 ]
				}

			}
, 			{
				"patchline" : 				{
					"destination" : [ "obj-254", 0 ],
					"source" : [ "obj-8", 0 ]
				}

			}
, 			{
				"patchline" : 				{
					"destination" : [ "obj-254", 0 ],
					"source" : [ "obj-9", 0 ]
				}

			}
 ]
	}

}
